<svg xmlns="http://www.w3.org/2000/svg" width="1200" height="1030" viewBox="0 0 1200 1030"><rect width="1200" height="1030" fill="#fff"/><style>text{font-family:DejaVu Sans,sans-serif} .label{font-size:14px;font-weight:600;letter-spacing:1px}</style><text x="48" y="55" font-size="28" font-weight="700">DAGGERML / OPTICAL REFINEMENT</text><text x="48" y="84" font-size="14" fill="#666">Selected metaphors · eight symbols · three optical sizes · monochrome</text><g transform="translate(120 125) scale(3)" color="#17191b"><g fill="none" stroke="currentColor" stroke-width="2" stroke-linecap="square" stroke-linejoin="round"><path d="M8 12H12V5.5H16M12 12V18.5H16"/><rect x="3" y="9.5" width="5" height="5"/><rect x="16" y="3" width="5" height="5"/><rect x="16" y="16" width="5" height="5"/></g></g><text x="155" y="230" text-anchor="middle" class="label">DAG</text><g transform="translate(410 125) scale(3)" color="#17191b"><g fill="none" stroke="currentColor" stroke-width="2" stroke-linecap="square" stroke-linejoin="round"><rect x="4" y="4" width="16" height="16"/></g></g><text x="445" y="230" text-anchor="middle" class="label">NODE</text><g transform="translate(700 125) scale(3)" color="#17191b"><g fill="none" stroke="currentColor" stroke-width="2" stroke-linecap="square" stroke-linejoin="round"><path d="M7 3L21 12L7 21Z"/></g></g><text x="735" y="230" text-anchor="middle" class="label">RUN</text><g transform="translate(990 125) scale(3)" color="#17191b"><g fill="none" stroke="currentColor" stroke-width="2" stroke-linecap="square" stroke-linejoin="round"><path d="M6 3H5Q3 3 3 5V10Q3 12 2 12Q3 12 3 14V19Q3 21 5 21H6M18 3H19Q21 3 21 5V10Q21 12 22 12Q21 12 21 14V19Q21 21 19 21H18M8 12H16M12 10L16 12L12 14"/></g></g><text x="1025" y="230" text-anchor="middle" class="label">FUNCTION</text><g transform="translate(120 285) scale(3)" color="#17191b"><g fill="none" stroke="currentColor" stroke-width="2" stroke-linecap="square" stroke-linejoin="round"><ellipse cx="12" cy="5" rx="9" ry="2"/><path d="M3 5V19C3 22 21 22 21 19V5M3 12C3 15 21 15 21 12"/></g></g><text x="155" y="390" text-anchor="middle" class="label">DATA</text><g transform="translate(410 285) scale(3)" color="#17191b"><g fill="none" stroke="currentColor" stroke-width="2" stroke-linecap="square" stroke-linejoin="round"><path d="M12 5V3M4 11C4 4 20 4 20 11ZM5 11Q5 18 12 21Q19 18 19 11"/></g></g><text x="445" y="390" text-anchor="middle" class="label">CACHE</text><g transform="translate(700 285) scale(3)" color="#17191b"><g fill="none" stroke="currentColor" stroke-width="2" stroke-linecap="square" stroke-linejoin="round"><path d="M3 12H7.5M16.5 12H21"/><circle cx="12" cy="12" r="4.5"/></g></g><text x="735" y="390" text-anchor="middle" class="label">COMMIT</text><g transform="translate(990 285) scale(3)" color="#17191b"><g fill="none" stroke="currentColor" stroke-width="2" stroke-linecap="square" stroke-linejoin="round"><g transform="translate(0 4)"><path d="M7 13H18C23 13 22 6 17 7C16 0 6 2 7 8C0 7 1 13 7 13Z"/></g></g></g><text x="1025" y="390" text-anchor="middle" class="label">REMOTE</text><rect x="36" y="455" width="552" height="493" rx="8" fill="#f3f4f5"/><g fill="#17191b"><text x="60" y="490" class="label">LIGHT / NATIVE-SIZE CHECK</text><text x="301" y="524" text-anchor="middle" font-size="12">16 px</text><text x="401" y="524" text-anchor="middle" font-size="12">20 px</text><text x="501" y="524" text-anchor="middle" font-size="12">24 px</text><text x="60" y="565" font-size="14">dag</text><g transform="translate(293 550)" color="#17191b"><g fill="none" stroke="currentColor" stroke-width="1.5" stroke-linecap="square" stroke-linejoin="round"><path d="M6 8H8V4H10M8 8V12H10"/><rect x="2" y="6" width="4" height="4"/><rect x="10" y="2" width="4" height="4"/><rect x="10" y="10" width="4" height="4"/></g></g><g transform="translate(391 550)" color="#17191b"><g fill="none" stroke="currentColor" stroke-width="1.5" stroke-linecap="square" stroke-linejoin="round"><path d="M8 10H10V5.5H12M10 10V14.5H12"/><rect x="3" y="7.5" width="5" height="5"/><rect x="12" y="3" width="5" height="5"/><rect x="12" y="12" width="5" height="5"/></g></g><g transform="translate(489 550)" color="#17191b"><g fill="none" stroke="currentColor" stroke-width="2" stroke-linecap="square" stroke-linejoin="round"><path d="M8 12H12V5.5H16M12 12V18.5H16"/><rect x="3" y="9.5" width="5" height="5"/><rect x="16" y="3" width="5" height="5"/><rect x="16" y="16" width="5" height="5"/></g></g><text x="60" y="611" font-size="14">node</text><g transform="translate(293 596)" color="#17191b"><g fill="none" stroke="currentColor" stroke-width="1.5" stroke-linecap="square" stroke-linejoin="round"><rect x="3" y="3" width="10" height="10"/></g></g><g transform="translate(391 596)" color="#17191b"><g fill="none" stroke="currentColor" stroke-width="1.5" stroke-linecap="square" stroke-linejoin="round"><rect x="4" y="4" width="12" height="12"/></g></g><g transform="translate(489 596)" color="#17191b"><g fill="none" stroke="currentColor" stroke-width="2" stroke-linecap="square" stroke-linejoin="round"><rect x="4" y="4" width="16" height="16"/></g></g><text x="60" y="657" font-size="14">run</text><g transform="translate(293 642)" color="#17191b"><g fill="none" stroke="currentColor" stroke-width="1.5" stroke-linecap="square" stroke-linejoin="round"><path d="M5 2L14 8L5 14Z"/></g></g><g transform="translate(391 642)" color="#17191b"><g fill="none" stroke="currentColor" stroke-width="1.5" stroke-linecap="square" stroke-linejoin="round"><path d="M6 3L17 10L6 17Z"/></g></g><g transform="translate(489 642)" color="#17191b"><g fill="none" stroke="currentColor" stroke-width="2" stroke-linecap="square" stroke-linejoin="round"><path d="M7 3L21 12L7 21Z"/></g></g><text x="60" y="703" font-size="14">function</text><g transform="translate(293 688)" color="#17191b"><g fill="none" stroke="currentColor" stroke-width="1.5" stroke-linecap="square" stroke-linejoin="round"><path d="M4 2H3Q2 2 2 4V6Q2 8 1 8Q2 8 2 10V12Q2 14 3 14H4M12 2H13Q14 2 14 4V6Q14 8 15 8Q14 8 14 10V12Q14 14 13 14H12M6 8H10M8 6L10 8L8 10"/></g></g><g transform="translate(391 688)" color="#17191b"><g fill="none" stroke="currentColor" stroke-width="1.5" stroke-linecap="square" stroke-linejoin="round"><path d="M5 3H4Q3 3 3 5V8Q3 10 2 10Q3 10 3 12V15Q3 17 4 17H5M15 3H16Q17 3 17 5V8Q17 10 18 10Q17 10 17 12V15Q17 17 16 17H15M7 10H13M10 8L13 10L10 12"/></g></g><g transform="translate(489 688)" color="#17191b"><g fill="none" stroke="currentColor" stroke-width="2" stroke-linecap="square" stroke-linejoin="round"><path d="M6 3H5Q3 3 3 5V10Q3 12 2 12Q3 12 3 14V19Q3 21 5 21H6M18 3H19Q21 3 21 5V10Q21 12 22 12Q21 12 21 14V19Q21 21 19 21H18M8 12H16M12 10L16 12L12 14"/></g></g><text x="60" y="749" font-size="14">data</text><g transform="translate(293 734)" color="#17191b"><g fill="none" stroke="currentColor" stroke-width="1.5" stroke-linecap="square" stroke-linejoin="round"><ellipse cx="8" cy="4" rx="6" ry="2"/><path d="M2 4V12C2 15 14 15 14 12V4M2 8C2 11 14 11 14 8"/></g></g><g transform="translate(391 734)" color="#17191b"><g fill="none" stroke="currentColor" stroke-width="1.5" stroke-linecap="square" stroke-linejoin="round"><ellipse cx="10" cy="5" rx="7" ry="2"/><path d="M3 5V15C3 18 17 18 17 15V5M3 10C3 13 17 13 17 10"/></g></g><g transform="translate(489 734)" color="#17191b"><g fill="none" stroke="currentColor" stroke-width="2" stroke-linecap="square" stroke-linejoin="round"><ellipse cx="12" cy="5" rx="9" ry="2"/><path d="M3 5V19C3 22 21 22 21 19V5M3 12C3 15 21 15 21 12"/></g></g><text x="60" y="795" font-size="14">cache</text><g transform="translate(293 780)" color="#17191b"><g fill="none" stroke="currentColor" stroke-width="1.5" stroke-linecap="square" stroke-linejoin="round"><path d="M8 4V2M3 7C3 3 13 3 13 7ZM4 7Q4 11 8 14Q12 11 12 7"/></g></g><g transform="translate(391 780)" color="#17191b"><g fill="none" stroke="currentColor" stroke-width="1.5" stroke-linecap="square" stroke-linejoin="round"><path d="M10 5V3M4 9C4 4 16 4 16 9ZM5 9Q5 14 10 17Q15 14 15 9"/></g></g><g transform="translate(489 780)" color="#17191b"><g fill="none" stroke="currentColor" stroke-width="2" stroke-linecap="square" stroke-linejoin="round"><path d="M12 5V3M4 11C4 4 20 4 20 11ZM5 11Q5 18 12 21Q19 18 19 11"/></g></g><text x="60" y="841" font-size="14">commit</text><g transform="translate(293 826)" color="#17191b"><g fill="none" stroke="currentColor" stroke-width="1.5" stroke-linecap="square" stroke-linejoin="round"><path d="M2 8H5M11 8H14"/><circle cx="8" cy="8" r="3"/></g></g><g transform="translate(391 826)" color="#17191b"><g fill="none" stroke="currentColor" stroke-width="1.5" stroke-linecap="square" stroke-linejoin="round"><path d="M3 10H6.25M13.75 10H17"/><circle cx="10" cy="10" r="3.75"/></g></g><g transform="translate(489 826)" color="#17191b"><g fill="none" stroke="currentColor" stroke-width="2" stroke-linecap="square" stroke-linejoin="round"><path d="M3 12H7.5M16.5 12H21"/><circle cx="12" cy="12" r="4.5"/></g></g><text x="60" y="887" font-size="14">remote</text><g transform="translate(293 872)" color="#17191b"><g fill="none" stroke="currentColor" stroke-width="1.5" stroke-linecap="square" stroke-linejoin="round"><g transform="translate(0 2.5)"><path d="M5 9H11C16 9 15 4 11 5C10 -1 4 1 5 6C-1 5 0 9 5 9Z"/></g></g></g><g transform="translate(391 872)" color="#17191b"><g fill="none" stroke="currentColor" stroke-width="1.5" stroke-linecap="square" stroke-linejoin="round"><g transform="translate(0 3)"><path d="M6 11H14C19 11 18 5 14 6C13 0 5 2 6 7C0 6 1 11 6 11Z"/></g></g></g><g transform="translate(489 872)" color="#17191b"><g fill="none" stroke="currentColor" stroke-width="2" stroke-linecap="square" stroke-linejoin="round"><g transform="translate(0 4)"><path d="M7 13H18C23 13 22 6 17 7C16 0 6 2 7 8C0 7 1 13 7 13Z"/></g></g></g></g><rect x="612" y="455" width="552" height="493" rx="8" fill="#17191b"/><g fill="#f7f8fa"><text x="636" y="490" class="label">DARK / NATIVE-SIZE CHECK</text><text x="877" y="524" text-anchor="middle" font-size="12">16 px</text><text x="977" y="524" text-anchor="middle" font-size="12">20 px</text><text x="1077" y="524" text-anchor="middle" font-size="12">24 px</text><text x="636" y="565" font-size="14">dag</text><g transform="translate(869 550)" color="#f7f8fa"><g fill="none" stroke="currentColor" stroke-width="1.5" stroke-linecap="square" stroke-linejoin="round"><path d="M6 8H8V4H10M8 8V12H10"/><rect x="2" y="6" width="4" height="4"/><rect x="10" y="2" width="4" height="4"/><rect x="10" y="10" width="4" height="4"/></g></g><g transform="translate(967 550)" color="#f7f8fa"><g fill="none" stroke="currentColor" stroke-width="1.5" stroke-linecap="square" stroke-linejoin="round"><path d="M8 10H10V5.5H12M10 10V14.5H12"/><rect x="3" y="7.5" width="5" height="5"/><rect x="12" y="3" width="5" height="5"/><rect x="12" y="12" width="5" height="5"/></g></g><g transform="translate(1065 550)" color="#f7f8fa"><g fill="none" stroke="currentColor" stroke-width="2" stroke-linecap="square" stroke-linejoin="round"><path d="M8 12H12V5.5H16M12 12V18.5H16"/><rect x="3" y="9.5" width="5" height="5"/><rect x="16" y="3" width="5" height="5"/><rect x="16" y="16" width="5" height="5"/></g></g><text x="636" y="611" font-size="14">node</text><g transform="translate(869 596)" color="#f7f8fa"><g fill="none" stroke="currentColor" stroke-width="1.5" stroke-linecap="square" stroke-linejoin="round"><rect x="3" y="3" width="10" height="10"/></g></g><g transform="translate(967 596)" color="#f7f8fa"><g fill="none" stroke="currentColor" stroke-width="1.5" stroke-linecap="square" stroke-linejoin="round"><rect x="4" y="4" width="12" height="12"/></g></g><g transform="translate(1065 596)" color="#f7f8fa"><g fill="none" stroke="currentColor" stroke-width="2" stroke-linecap="square" stroke-linejoin="round"><rect x="4" y="4" width="16" height="16"/></g></g><text x="636" y="657" font-size="14">run</text><g transform="translate(869 642)" color="#f7f8fa"><g fill="none" stroke="currentColor" stroke-width="1.5" stroke-linecap="square" stroke-linejoin="round"><path d="M5 2L14 8L5 14Z"/></g></g><g transform="translate(967 642)" color="#f7f8fa"><g fill="none" stroke="currentColor" stroke-width="1.5" stroke-linecap="square" stroke-linejoin="round"><path d="M6 3L17 10L6 17Z"/></g></g><g transform="translate(1065 642)" color="#f7f8fa"><g fill="none" stroke="currentColor" stroke-width="2" stroke-linecap="square" stroke-linejoin="round"><path d="M7 3L21 12L7 21Z"/></g></g><text x="636" y="703" font-size="14">function</text><g transform="translate(869 688)" color="#f7f8fa"><g fill="none" stroke="currentColor" stroke-width="1.5" stroke-linecap="square" stroke-linejoin="round"><path d="M4 2H3Q2 2 2 4V6Q2 8 1 8Q2 8 2 10V12Q2 14 3 14H4M12 2H13Q14 2 14 4V6Q14 8 15 8Q14 8 14 10V12Q14 14 13 14H12M6 8H10M8 6L10 8L8 10"/></g></g><g transform="translate(967 688)" color="#f7f8fa"><g fill="none" stroke="currentColor" stroke-width="1.5" stroke-linecap="square" stroke-linejoin="round"><path d="M5 3H4Q3 3 3 5V8Q3 10 2 10Q3 10 3 12V15Q3 17 4 17H5M15 3H16Q17 3 17 5V8Q17 10 18 10Q17 10 17 12V15Q17 17 16 17H15M7 10H13M10 8L13 10L10 12"/></g></g><g transform="translate(1065 688)" color="#f7f8fa"><g fill="none" stroke="currentColor" stroke-width="2" stroke-linecap="square" stroke-linejoin="round"><path d="M6 3H5Q3 3 3 5V10Q3 12 2 12Q3 12 3 14V19Q3 21 5 21H6M18 3H19Q21 3 21 5V10Q21 12 22 12Q21 12 21 14V19Q21 21 19 21H18M8 12H16M12 10L16 12L12 14"/></g></g><text x="636" y="749" font-size="14">data</text><g transform="translate(869 734)" color="#f7f8fa"><g fill="none" stroke="currentColor" stroke-width="1.5" stroke-linecap="square" stroke-linejoin="round"><ellipse cx="8" cy="4" rx="6" ry="2"/><path d="M2 4V12C2 15 14 15 14 12V4M2 8C2 11 14 11 14 8"/></g></g><g transform="translate(967 734)" color="#f7f8fa"><g fill="none" stroke="currentColor" stroke-width="1.5" stroke-linecap="square" stroke-linejoin="round"><ellipse cx="10" cy="5" rx="7" ry="2"/><path d="M3 5V15C3 18 17 18 17 15V5M3 10C3 13 17 13 17 10"/></g></g><g transform="translate(1065 734)" color="#f7f8fa"><g fill="none" stroke="currentColor" stroke-width="2" stroke-linecap="square" stroke-linejoin="round"><ellipse cx="12" cy="5" rx="9" ry="2"/><path d="M3 5V19C3 22 21 22 21 19V5M3 12C3 15 21 15 21 12"/></g></g><text x="636" y="795" font-size="14">cache</text><g transform="translate(869 780)" color="#f7f8fa"><g fill="none" stroke="currentColor" stroke-width="1.5" stroke-linecap="square" stroke-linejoin="round"><path d="M8 4V2M3 7C3 3 13 3 13 7ZM4 7Q4 11 8 14Q12 11 12 7"/></g></g><g transform="translate(967 780)" color="#f7f8fa"><g fill="none" stroke="currentColor" stroke-width="1.5" stroke-linecap="square" stroke-linejoin="round"><path d="M10 5V3M4 9C4 4 16 4 16 9ZM5 9Q5 14 10 17Q15 14 15 9"/></g></g><g transform="translate(1065 780)" color="#f7f8fa"><g fill="none" stroke="currentColor" stroke-width="2" stroke-linecap="square" stroke-linejoin="round"><path d="M12 5V3M4 11C4 4 20 4 20 11ZM5 11Q5 18 12 21Q19 18 19 11"/></g></g><text x="636" y="841" font-size="14">commit</text><g transform="translate(869 826)" color="#f7f8fa"><g fill="none" stroke="currentColor" stroke-width="1.5" stroke-linecap="square" stroke-linejoin="round"><path d="M2 8H5M11 8H14"/><circle cx="8" cy="8" r="3"/></g></g><g transform="translate(967 826)" color="#f7f8fa"><g fill="none" stroke="currentColor" stroke-width="1.5" stroke-linecap="square" stroke-linejoin="round"><path d="M3 10H6.25M13.75 10H17"/><circle cx="10" cy="10" r="3.75"/></g></g><g transform="translate(1065 826)" color="#f7f8fa"><g fill="none" stroke="currentColor" stroke-width="2" stroke-linecap="square" stroke-linejoin="round"><path d="M3 12H7.5M16.5 12H21"/><circle cx="12" cy="12" r="4.5"/></g></g><text x="636" y="887" font-size="14">remote</text><g transform="translate(869 872)" color="#f7f8fa"><g fill="none" stroke="currentColor" stroke-width="1.5" stroke-linecap="square" stroke-linejoin="round"><g transform="translate(0 2.5)"><path d="M5 9H11C16 9 15 4 11 5C10 -1 4 1 5 6C-1 5 0 9 5 9Z"/></g></g></g><g transform="translate(967 872)" color="#f7f8fa"><g fill="none" stroke="currentColor" stroke-width="1.5" stroke-linecap="square" stroke-linejoin="round"><g transform="translate(0 3)"><path d="M6 11H14C19 11 18 5 14 6C13 0 5 2 6 7C0 6 1 11 6 11Z"/></g></g></g><g transform="translate(1065 872)" color="#f7f8fa"><g fill="none" stroke="currentColor" stroke-width="2" stroke-linecap="square" stroke-linejoin="round"><g transform="translate(0 4)"><path d="M7 13H18C23 13 22 6 17 7C16 0 6 2 7 8C0 7 1 13 7 13Z"/></g></g></g></g><text x="48" y="985" font-size="13" fill="#555">16 / 20 px: 1.5 px stroke  ·  24 px: 2 px stroke  ·  Square terminals  ·  Optical spacing per size</text><text x="48" y="1008" font-size="12" fill="#777">View at 100% for native sizes. Browser downscaling changes apparent sharpness. Semantic recognition remains untested.</text></svg>
